<svg xmlns="http://www.w3.org/2000/svg" xmlns:xlink="http://www.w3.org/1999/xlink" width="1920" zoomAndPan="magnify" viewBox="0 0 1440 809.999993" height="1080" preserveAspectRatio="xMidYMid meet" version="1.0"><defs><g/><clipPath id="83a646cea1"><path d="M 0.519531 481 L 943.960938 481 L 943.960938 531 L 0.519531 531 Z M 0.519531 481 " clip-rule="nonzero"/></clipPath><clipPath id="5a5cced6a7"><rect x="0" width="944" y="0" height="603"/></clipPath><clipPath id="f65a19c299"><rect x="0" width="926" y="0" height="150"/></clipPath></defs><g transform="matrix(1, 0, 0, 1, 305, 0.000000000000039746)"><g clip-path="url(#5a5cced6a7)"><g clip-path="url(#83a646cea1)"><path fill="#000000" d="M 0.636719 481.785156 L 943.492188 481.785156 L 943.492188 530.917969 L 0.636719 530.917969 Z M 0.636719 481.785156 " fill-opacity="1" fill-rule="nonzero"/></g><g fill="#000000" fill-opacity="1"><g transform="translate(0.636241, 457.221247)"><g><path d="M 10.3125 -343.921875 L 157.21875 -343.921875 C 202.75 -343.921875 236.894531 -337.78125 259.65625 -325.5 C 282.425781 -313.21875 293.8125 -292.5 293.8125 -263.34375 C 293.8125 -218.46875 266.785156 -191.609375 212.734375 -182.765625 L 212.734375 -181.78125 C 278.242188 -173.59375 311 -145.097656 311 -96.296875 C 311 -60.597656 297.566406 -35.625 270.703125 -21.375 C 243.847656 -7.125 205.203125 0 154.765625 0 L 10.3125 0 L 10.3125 -9.328125 L 42.25 -9.328125 L 42.25 -334.578125 L 10.3125 -334.578125 Z M 138.0625 -173.921875 L 138.0625 -9.328125 L 161.15625 -9.328125 C 179.164062 -9.328125 191.773438 -15.550781 198.984375 -28 C 206.191406 -40.445312 209.796875 -58.789062 209.796875 -83.03125 L 209.796875 -109.078125 C 209.796875 -130.691406 205.375 -146.898438 196.53125 -157.703125 C 187.6875 -168.515625 171.960938 -173.921875 149.359375 -173.921875 Z M 138.0625 -334.578125 L 138.0625 -183.265625 L 150.828125 -183.265625 C 167.859375 -183.265625 179.734375 -188.421875 186.453125 -198.734375 C 193.171875 -209.054688 196.53125 -224.859375 196.53125 -246.140625 L 196.53125 -269.234375 C 196.53125 -293.472656 193.582031 -310.421875 187.6875 -320.078125 C 181.789062 -329.742188 170.488281 -334.578125 153.78125 -334.578125 Z M 138.0625 -334.578125 "/></g></g></g><g fill="#000000" fill-opacity="1"><g transform="translate(309.670507, 457.221247)"><g><path d="M 212.25 -9.328125 L 176.375 -115.453125 L 79.09375 -115.453125 L 41.265625 -9.328125 L 78.125 -9.328125 L 78.125 0 L 2.953125 0 L 2.953125 -9.328125 L 26.046875 -9.328125 L 151.328125 -346.859375 L 191.609375 -346.859375 L 315.421875 -9.328125 L 338.015625 -9.328125 L 338.015625 0 L 177.359375 0 L 177.359375 -9.328125 Z M 129.703125 -254.984375 L 83.515625 -126.265625 L 172.453125 -126.265625 Z M 129.703125 -254.984375 "/></g></g></g><g fill="#000000" fill-opacity="1"><g transform="translate(650.639943, 457.221247)"><g><path d="M 10.3125 -343.921875 L 187.1875 -343.921875 L 187.1875 -333.109375 L 135.109375 -333.109375 L 135.109375 -10.8125 L 152.796875 -10.8125 C 180.640625 -10.8125 202.832031 -19.328125 219.375 -36.359375 C 235.914062 -53.390625 252.703125 -79.59375 269.734375 -114.96875 L 280.046875 -114.96875 L 270.71875 0 L 10.3125 0 L 10.3125 -10.8125 L 39.3125 -10.8125 L 39.3125 -333.109375 L 10.3125 -333.109375 Z M 10.3125 -343.921875 "/></g></g></g></g></g><g transform="matrix(1, 0, 0, 1, 314, 540)"><g clip-path="url(#f65a19c299)"><g fill="#545454" fill-opacity="1"><g transform="translate(0.592419, 94.217993)"><g><path d="M 56.3125 -55.90625 C 56.507812 -54.78125 56.539062 -53.851562 56.40625 -53.125 C 56.269531 -52.40625 55.804688 -51.910156 55.015625 -51.640625 C 54.160156 -51.378906 53.398438 -51.507812 52.734375 -52.03125 C 52.066406 -52.5625 51.375 -53.457031 50.65625 -54.71875 C 48.863281 -57.832031 46.84375 -60.179688 44.59375 -61.765625 C 42.34375 -63.359375 39.492188 -64.15625 36.046875 -64.15625 L 31.484375 -64.15625 C 28.566406 -64.15625 26.378906 -63.988281 24.921875 -63.65625 C 23.472656 -63.320312 22.515625 -62.820312 22.046875 -62.15625 C 21.585938 -61.5 21.359375 -60.609375 21.359375 -59.484375 L 21.359375 -43 C 21.359375 -40.75 22.019531 -39.375 23.34375 -38.875 C 24.664062 -38.382812 26.582031 -38.140625 29.09375 -38.140625 L 34.46875 -38.140625 C 36.050781 -38.140625 37.238281 -38.519531 38.03125 -39.28125 C 38.832031 -40.039062 39.429688 -40.929688 39.828125 -41.953125 C 40.222656 -42.984375 40.632812 -43.878906 41.0625 -44.640625 C 41.5 -45.398438 42.179688 -45.78125 43.109375 -45.78125 C 44.023438 -45.78125 44.648438 -45.382812 44.984375 -44.59375 C 45.316406 -43.800781 45.484375 -42.378906 45.484375 -40.328125 L 45.484375 -29.890625 C 45.484375 -26.648438 44.691406 -25.03125 43.109375 -25.03125 C 42.179688 -25.03125 41.5 -25.425781 41.0625 -26.21875 C 40.632812 -27.007812 40.222656 -27.914062 39.828125 -28.9375 C 39.429688 -29.96875 38.832031 -30.878906 38.03125 -31.671875 C 37.238281 -32.472656 36.050781 -32.875 34.46875 -32.875 L 29.09375 -32.875 C 26.582031 -32.875 24.664062 -32.640625 23.34375 -32.171875 C 22.019531 -31.710938 21.359375 -30.320312 21.359375 -28 L 21.359375 -15.59375 C 21.359375 -12.675781 21.65625 -10.539062 22.25 -9.1875 C 22.84375 -7.832031 23.550781 -6.851562 24.375 -6.25 C 25.207031 -5.65625 25.921875 -5.144531 26.515625 -4.71875 C 27.109375 -4.289062 27.40625 -3.546875 27.40625 -2.484375 C 27.40625 -1.617188 27.007812 -1.003906 26.21875 -0.640625 C 25.425781 -0.273438 24.066406 -0.09375 22.140625 -0.09375 L 8.84375 -0.09375 C 5.332031 -0.09375 3.578125 -0.890625 3.578125 -2.484375 C 3.578125 -3.546875 3.890625 -4.289062 4.515625 -4.71875 C 5.148438 -5.144531 5.878906 -5.65625 6.703125 -6.25 C 7.523438 -6.851562 8.25 -7.832031 8.875 -9.1875 C 9.507812 -10.539062 9.828125 -12.675781 9.828125 -15.59375 L 9.828125 -54.328125 C 9.828125 -55.378906 9.8125 -56.21875 9.78125 -56.84375 C 9.75 -57.476562 9.664062 -58.09375 9.53125 -58.6875 C 9.332031 -60.21875 8.914062 -61.34375 8.28125 -62.0625 C 7.65625 -62.789062 6.976562 -63.367188 6.25 -63.796875 C 5.53125 -64.234375 4.90625 -64.679688 4.375 -65.140625 C 3.84375 -65.609375 3.578125 -66.273438 3.578125 -67.140625 C 3.578125 -68.722656 5.332031 -69.515625 8.84375 -69.515625 L 45.78125 -69.625 C 48.695312 -69.625 50.617188 -69.359375 51.546875 -68.828125 C 52.472656 -68.296875 53.132812 -67.46875 53.53125 -66.34375 C 54.0625 -65.019531 54.585938 -63.492188 55.109375 -61.765625 C 55.640625 -60.046875 56.039062 -58.09375 56.3125 -55.90625 Z M 56.3125 -55.90625 "/></g></g></g><g fill="#545454" fill-opacity="1"><g transform="translate(52.029543, 94.217993)"><g><path d="M 26.71875 1 C 22.28125 1 18.304688 0.0546875 14.796875 -1.828125 C 11.285156 -3.722656 8.503906 -6.390625 6.453125 -9.828125 C 4.398438 -13.273438 3.375 -17.347656 3.375 -22.046875 C 3.375 -27.015625 4.53125 -31.515625 6.84375 -35.546875 C 9.164062 -39.585938 12.34375 -42.78125 16.375 -45.125 C 20.414062 -47.476562 25.019531 -48.65625 30.1875 -48.65625 C 34.6875 -48.65625 38.65625 -47.613281 42.09375 -45.53125 C 45.539062 -43.445312 48.238281 -40.632812 50.1875 -37.09375 C 52.144531 -33.550781 53.125 -29.5625 53.125 -25.125 C 53.125 -20.226562 52 -15.789062 49.75 -11.8125 C 47.5 -7.84375 44.390625 -4.710938 40.421875 -2.421875 C 36.453125 -0.140625 31.882812 1 26.71875 1 Z M 30.390625 -4.671875 C 34.234375 -4.671875 37.144531 -6.078125 39.125 -8.890625 C 41.113281 -11.703125 42.109375 -15.160156 42.109375 -19.265625 C 42.109375 -23.234375 41.425781 -27.019531 40.0625 -30.625 C 38.707031 -34.238281 36.835938 -37.1875 34.453125 -39.46875 C 32.078125 -41.757812 29.332031 -42.90625 26.21875 -42.90625 C 23.570312 -42.90625 21.382812 -42.207031 19.65625 -40.8125 C 17.9375 -39.425781 16.644531 -37.570312 15.78125 -35.25 C 14.925781 -32.9375 14.5 -30.390625 14.5 -27.609375 C 14.5 -23.503906 15.175781 -19.710938 16.53125 -16.234375 C 17.894531 -12.765625 19.765625 -9.96875 22.140625 -7.84375 C 24.523438 -5.726562 27.273438 -4.671875 30.390625 -4.671875 Z M 30.390625 -4.671875 "/></g></g></g><g fill="#545454" fill-opacity="1"><g transform="translate(108.730177, 94.217993)"><g><path d="M 26.71875 1 C 22.28125 1 18.304688 0.0546875 14.796875 -1.828125 C 11.285156 -3.722656 8.503906 -6.390625 6.453125 -9.828125 C 4.398438 -13.273438 3.375 -17.347656 3.375 -22.046875 C 3.375 -27.015625 4.53125 -31.515625 6.84375 -35.546875 C 9.164062 -39.585938 12.34375 -42.78125 16.375 -45.125 C 20.414062 -47.476562 25.019531 -48.65625 30.1875 -48.65625 C 34.6875 -48.65625 38.65625 -47.613281 42.09375 -45.53125 C 45.539062 -43.445312 48.238281 -40.632812 50.1875 -37.09375 C 52.144531 -33.550781 53.125 -29.5625 53.125 -25.125 C 53.125 -20.226562 52 -15.789062 49.75 -11.8125 C 47.5 -7.84375 44.390625 -4.710938 40.421875 -2.421875 C 36.453125 -0.140625 31.882812 1 26.71875 1 Z M 30.390625 -4.671875 C 34.234375 -4.671875 37.144531 -6.078125 39.125 -8.890625 C 41.113281 -11.703125 42.109375 -15.160156 42.109375 -19.265625 C 42.109375 -23.234375 41.425781 -27.019531 40.0625 -30.625 C 38.707031 -34.238281 36.835938 -37.1875 34.453125 -39.46875 C 32.078125 -41.757812 29.332031 -42.90625 26.21875 -42.90625 C 23.570312 -42.90625 21.382812 -42.207031 19.65625 -40.8125 C 17.9375 -39.425781 16.644531 -37.570312 15.78125 -35.25 C 14.925781 -32.9375 14.5 -30.390625 14.5 -27.609375 C 14.5 -23.503906 15.175781 -19.710938 16.53125 -16.234375 C 17.894531 -12.765625 19.765625 -9.96875 22.140625 -7.84375 C 24.523438 -5.726562 27.273438 -4.671875 30.390625 -4.671875 Z M 30.390625 -4.671875 "/></g></g></g><g fill="#545454" fill-opacity="1"><g transform="translate(165.430811, 94.217993)"><g><path d="M 51.84375 -67.328125 L 51.734375 -53.734375 L 51.640625 -14 C 51.640625 -12.144531 51.9375 -10.785156 52.53125 -9.921875 C 53.132812 -9.066406 53.816406 -8.457031 54.578125 -8.09375 C 55.335938 -7.726562 56.015625 -7.394531 56.609375 -7.09375 C 57.203125 -6.800781 57.5 -6.289062 57.5 -5.5625 C 57.5 -4.5 56.539062 -3.441406 54.625 -2.390625 C 53.226562 -1.660156 51.535156 -0.929688 49.546875 -0.203125 C 47.566406 0.523438 45.914062 0.890625 44.59375 0.890625 C 42.144531 0.890625 40.882812 -0.925781 40.8125 -4.5625 L 40.71875 -7.640625 C 39.0625 -5.265625 36.84375 -3.210938 34.0625 -1.484375 C 31.28125 0.234375 27.90625 1.0625 23.9375 1 C 19.832031 0.925781 16.238281 -0.0976562 13.15625 -2.078125 C 10.082031 -4.066406 7.679688 -6.75 5.953125 -10.125 C 4.234375 -13.5 3.375 -17.304688 3.375 -21.546875 C 3.375 -25.648438 4.082031 -29.359375 5.5 -32.671875 C 6.925781 -35.984375 8.832031 -38.832031 11.21875 -41.21875 C 13.601562 -43.601562 16.285156 -45.4375 19.265625 -46.71875 C 22.242188 -48.007812 25.253906 -48.65625 28.296875 -48.65625 C 33.003906 -48.65625 37.078125 -47.46875 40.515625 -45.09375 L 40.515625 -53.625 C 40.515625 -55.613281 40.265625 -57.101562 39.765625 -58.09375 C 39.273438 -59.09375 38.710938 -59.820312 38.078125 -60.28125 C 37.453125 -60.75 36.890625 -61.179688 36.390625 -61.578125 C 35.898438 -61.972656 35.65625 -62.535156 35.65625 -63.265625 C 35.65625 -63.859375 35.851562 -64.351562 36.25 -64.75 C 36.644531 -65.144531 37.4375 -65.609375 38.625 -66.140625 C 40.75 -67.128906 42.9375 -68.003906 45.1875 -68.765625 C 47.4375 -69.535156 48.957031 -69.921875 49.75 -69.921875 C 51.144531 -70.046875 51.84375 -69.179688 51.84375 -67.328125 Z M 28.5 -6.546875 C 30.882812 -6.546875 32.9375 -7.125 34.65625 -8.28125 C 36.382812 -9.445312 37.726562 -10.921875 38.6875 -12.703125 C 39.644531 -14.492188 40.222656 -16.382812 40.421875 -18.375 L 40.421875 -23.640625 C 40.359375 -25.691406 40.144531 -27.789062 39.78125 -29.9375 C 39.414062 -32.09375 38.769531 -34 37.84375 -35.65625 C 35.1875 -40.625 31.378906 -43.109375 26.421875 -43.109375 C 22.578125 -43.109375 19.578125 -41.597656 17.421875 -38.578125 C 15.273438 -35.566406 14.203125 -31.675781 14.203125 -26.90625 C 14.203125 -22.476562 14.894531 -18.753906 16.28125 -15.734375 C 17.675781 -12.722656 19.460938 -10.4375 21.640625 -8.875 C 23.828125 -7.320312 26.113281 -6.546875 28.5 -6.546875 Z M 28.5 -6.546875 "/></g></g></g><g fill="#545454" fill-opacity="1"><g transform="translate(224.415362, 94.217993)"><g><path d="M 25.328125 1 C 21.023438 1 17.300781 0.351562 14.15625 -0.9375 C 11.007812 -2.226562 8.570312 -3.898438 6.84375 -5.953125 C 5.125 -8.003906 4.265625 -10.160156 4.265625 -12.421875 C 4.265625 -14.003906 4.773438 -15.257812 5.796875 -16.1875 C 6.828125 -17.113281 8.070312 -17.578125 9.53125 -17.578125 C 10.925781 -17.578125 11.984375 -17.175781 12.703125 -16.375 C 13.429688 -15.582031 14.128906 -14.691406 14.796875 -13.703125 C 15.660156 -12.378906 16.554688 -10.972656 17.484375 -9.484375 C 18.410156 -7.992188 19.582031 -6.734375 21 -5.703125 C 22.425781 -4.679688 24.332031 -4.171875 26.71875 -4.171875 C 28.90625 -4.171875 30.609375 -4.75 31.828125 -5.90625 C 33.054688 -7.0625 33.671875 -8.46875 33.671875 -10.125 C 33.671875 -12.050781 32.691406 -13.820312 30.734375 -15.4375 C 28.785156 -17.0625 25.757812 -18.703125 21.65625 -20.359375 C 19 -21.421875 16.476562 -22.546875 14.09375 -23.734375 C 11.71875 -24.921875 9.800781 -26.425781 8.34375 -28.25 C 6.882812 -30.070312 6.15625 -32.375 6.15625 -35.15625 C 6.15625 -38.195312 7.082031 -40.710938 8.9375 -42.703125 C 10.789062 -44.691406 13.140625 -46.179688 15.984375 -47.171875 C 18.835938 -48.160156 21.785156 -48.65625 24.828125 -48.65625 C 28.472656 -48.65625 31.664062 -48.140625 34.40625 -47.109375 C 37.15625 -46.085938 39.304688 -44.71875 40.859375 -43 C 42.421875 -41.28125 43.203125 -39.296875 43.203125 -37.046875 C 43.203125 -35.390625 42.769531 -34.082031 41.90625 -33.125 C 41.050781 -32.164062 39.894531 -31.6875 38.4375 -31.6875 C 36.976562 -31.6875 35.816406 -32.082031 34.953125 -32.875 C 34.097656 -33.664062 33.40625 -34.554688 32.875 -35.546875 C 32.207031 -36.742188 31.539062 -37.96875 30.875 -39.21875 C 30.21875 -40.476562 29.328125 -41.519531 28.203125 -42.34375 C 27.078125 -43.175781 25.421875 -43.59375 23.234375 -43.59375 C 21.378906 -43.59375 19.820312 -43.046875 18.5625 -41.953125 C 17.3125 -40.867188 16.6875 -39.5 16.6875 -37.84375 C 16.6875 -35.789062 17.515625 -34.035156 19.171875 -32.578125 C 20.828125 -31.117188 23.9375 -29.429688 28.5 -27.515625 C 31.550781 -26.316406 34.300781 -25.070312 36.75 -23.78125 C 39.195312 -22.488281 41.128906 -21.015625 42.546875 -19.359375 C 43.972656 -17.710938 44.6875 -15.628906 44.6875 -13.109375 C 44.6875 -10.523438 43.890625 -8.171875 42.296875 -6.046875 C 40.710938 -3.929688 38.476562 -2.226562 35.59375 -0.9375 C 32.71875 0.351562 29.296875 1 25.328125 1 Z M 25.328125 1 "/></g></g></g><g fill="#545454" fill-opacity="1"><g transform="translate(272.774751, 94.217993)"><g/></g></g><g fill="#545454" fill-opacity="1"><g transform="translate(292.634869, 94.217993)"><g><path d="M 38.734375 1 C 31.648438 1 25.492188 -0.472656 20.265625 -3.421875 C 15.035156 -6.367188 10.992188 -10.425781 8.140625 -15.59375 C 5.296875 -20.757812 3.875 -26.617188 3.875 -33.171875 C 3.875 -38.398438 4.765625 -43.265625 6.546875 -47.765625 C 8.335938 -52.265625 10.851562 -56.21875 14.09375 -59.625 C 17.34375 -63.039062 21.148438 -65.707031 25.515625 -67.625 C 29.890625 -69.550781 34.691406 -70.515625 39.921875 -70.515625 C 43.566406 -70.515625 46.363281 -70.265625 48.3125 -69.765625 C 50.269531 -69.265625 51.875 -69.015625 53.125 -69.015625 C 54.320312 -69.015625 55.203125 -69.226562 55.765625 -69.65625 C 56.328125 -70.09375 57.101562 -70.3125 58.09375 -70.3125 C 59.019531 -70.3125 59.78125 -69.976562 60.375 -69.3125 C 60.976562 -68.65625 61.507812 -67.269531 61.96875 -65.15625 C 62.363281 -63.5 62.773438 -61.59375 63.203125 -59.4375 C 63.640625 -57.28125 64.085938 -54.75 64.546875 -51.84375 C 64.679688 -50.644531 64.613281 -49.710938 64.34375 -49.046875 C 64.082031 -48.390625 63.457031 -48 62.46875 -47.875 C 61.601562 -47.800781 60.820312 -48.09375 60.125 -48.75 C 59.4375 -49.414062 58.628906 -50.410156 57.703125 -51.734375 C 56.242188 -53.796875 54.671875 -55.800781 52.984375 -57.75 C 51.296875 -59.707031 49.207031 -61.3125 46.71875 -62.5625 C 44.238281 -63.820312 41.113281 -64.453125 37.34375 -64.453125 C 32.769531 -64.453125 28.878906 -63.257812 25.671875 -60.875 C 22.460938 -58.488281 20.03125 -55.375 18.375 -51.53125 C 16.71875 -47.695312 15.859375 -43.53125 15.796875 -39.03125 C 15.796875 -32.675781 16.820312 -26.960938 18.875 -21.890625 C 20.925781 -16.828125 23.882812 -12.820312 27.75 -9.875 C 31.625 -6.9375 36.210938 -5.46875 41.515625 -5.46875 C 43.566406 -5.46875 45.648438 -5.75 47.765625 -6.3125 C 49.890625 -6.875 51.675781 -7.695312 53.125 -8.78125 C 54.582031 -9.875 55.3125 -11.1875 55.3125 -12.71875 L 55.3125 -21.25 C 55.3125 -23.101562 54.960938 -24.5625 54.265625 -25.625 C 53.578125 -26.6875 52.71875 -27.5 51.6875 -28.0625 C 50.664062 -28.625 49.640625 -29.066406 48.609375 -29.390625 C 47.585938 -29.722656 46.726562 -30.117188 46.03125 -30.578125 C 45.332031 -31.046875 44.984375 -31.710938 44.984375 -32.578125 C 44.984375 -33.503906 45.378906 -34.128906 46.171875 -34.453125 C 46.972656 -34.785156 48.300781 -34.953125 50.15625 -34.953125 L 66.546875 -35.0625 C 67.734375 -35.125 68.691406 -34.988281 69.421875 -34.65625 C 70.148438 -34.320312 70.515625 -33.691406 70.515625 -32.765625 C 70.515625 -31.835938 70.332031 -31.160156 69.96875 -30.734375 C 69.601562 -30.304688 69.171875 -29.828125 68.671875 -29.296875 C 68.179688 -28.765625 67.753906 -27.898438 67.390625 -26.703125 C 67.023438 -25.515625 66.84375 -23.695312 66.84375 -21.25 L 66.84375 -13.3125 C 66.84375 -11.65625 66.097656 -9.984375 64.609375 -8.296875 C 63.117188 -6.609375 61.082031 -5.066406 58.5 -3.671875 C 55.914062 -2.285156 52.914062 -1.160156 49.5 -0.296875 C 46.09375 0.566406 42.503906 1 38.734375 1 Z M 38.734375 1 "/></g></g></g><g fill="#545454" fill-opacity="1"><g transform="translate(367.408118, 94.217993)"><g><path d="M 33.171875 -48.65625 C 36.015625 -48.65625 38.097656 -47.894531 39.421875 -46.375 C 40.742188 -44.851562 41.40625 -43.035156 41.40625 -40.921875 C 41.40625 -39.328125 41.007812 -37.96875 40.21875 -36.84375 C 39.425781 -35.71875 38.332031 -35.125 36.9375 -35.0625 C 35.882812 -35.0625 35.039062 -35.289062 34.40625 -35.75 C 33.78125 -36.21875 33.203125 -36.765625 32.671875 -37.390625 C 32.140625 -38.015625 31.523438 -38.578125 30.828125 -39.078125 C 30.140625 -39.578125 29.195312 -39.828125 28 -39.828125 C 26.019531 -39.828125 24.25 -38.632812 22.6875 -36.25 C 21.132812 -33.863281 20.359375 -30.6875 20.359375 -26.71875 L 20.359375 -13.40625 C 20.359375 -11.09375 20.585938 -9.367188 21.046875 -8.234375 C 21.515625 -7.109375 22.0625 -6.28125 22.6875 -5.75 C 23.320312 -5.226562 23.867188 -4.75 24.328125 -4.3125 C 24.796875 -3.882812 25.03125 -3.175781 25.03125 -2.1875 C 25.03125 -1.320312 24.679688 -0.738281 23.984375 -0.4375 C 23.285156 -0.144531 22.273438 0 20.953125 0 L 8.4375 0 C 7.175781 0 6.164062 -0.164062 5.40625 -0.5 C 4.644531 -0.832031 4.265625 -1.425781 4.265625 -2.28125 C 4.265625 -3.207031 4.515625 -3.882812 5.015625 -4.3125 C 5.515625 -4.75 6.078125 -5.226562 6.703125 -5.75 C 7.328125 -6.28125 7.890625 -7.109375 8.390625 -8.234375 C 8.890625 -9.367188 9.140625 -11.09375 9.140625 -13.40625 L 9.140625 -32.875 C 9.140625 -34.394531 8.90625 -35.71875 8.4375 -36.84375 C 7.976562 -37.96875 7.1875 -38.894531 6.0625 -39.625 C 5.59375 -39.957031 5.175781 -40.320312 4.8125 -40.71875 C 4.445312 -41.113281 4.265625 -41.609375 4.265625 -42.203125 C 4.265625 -42.867188 4.460938 -43.414062 4.859375 -43.84375 C 5.265625 -44.269531 6.0625 -44.75 7.25 -45.28125 C 9.039062 -46.082031 10.941406 -46.796875 12.953125 -47.421875 C 14.972656 -48.046875 16.347656 -48.394531 17.078125 -48.46875 C 18.472656 -48.46875 19.171875 -47.601562 19.171875 -45.875 L 19.0625 -39.03125 C 20.789062 -42.007812 22.910156 -44.359375 25.421875 -46.078125 C 27.941406 -47.796875 30.523438 -48.65625 33.171875 -48.65625 Z M 33.171875 -48.65625 "/></g></g></g><g fill="#545454" fill-opacity="1"><g transform="translate(408.915465, 94.217993)"><g><path d="M 26.71875 1 C 22.28125 1 18.304688 0.0546875 14.796875 -1.828125 C 11.285156 -3.722656 8.503906 -6.390625 6.453125 -9.828125 C 4.398438 -13.273438 3.375 -17.347656 3.375 -22.046875 C 3.375 -27.015625 4.53125 -31.515625 6.84375 -35.546875 C 9.164062 -39.585938 12.34375 -42.78125 16.375 -45.125 C 20.414062 -47.476562 25.019531 -48.65625 30.1875 -48.65625 C 34.6875 -48.65625 38.65625 -47.613281 42.09375 -45.53125 C 45.539062 -43.445312 48.238281 -40.632812 50.1875 -37.09375 C 52.144531 -33.550781 53.125 -29.5625 53.125 -25.125 C 53.125 -20.226562 52 -15.789062 49.75 -11.8125 C 47.5 -7.84375 44.390625 -4.710938 40.421875 -2.421875 C 36.453125 -0.140625 31.882812 1 26.71875 1 Z M 30.390625 -4.671875 C 34.234375 -4.671875 37.144531 -6.078125 39.125 -8.890625 C 41.113281 -11.703125 42.109375 -15.160156 42.109375 -19.265625 C 42.109375 -23.234375 41.425781 -27.019531 40.0625 -30.625 C 38.707031 -34.238281 36.835938 -37.1875 34.453125 -39.46875 C 32.078125 -41.757812 29.332031 -42.90625 26.21875 -42.90625 C 23.570312 -42.90625 21.382812 -42.207031 19.65625 -40.8125 C 17.9375 -39.425781 16.644531 -37.570312 15.78125 -35.25 C 14.925781 -32.9375 14.5 -30.390625 14.5 -27.609375 C 14.5 -23.503906 15.175781 -19.710938 16.53125 -16.234375 C 17.894531 -12.765625 19.765625 -9.96875 22.140625 -7.84375 C 24.523438 -5.726562 27.273438 -4.671875 30.390625 -4.671875 Z M 30.390625 -4.671875 "/></g></g></g><g fill="#545454" fill-opacity="1"><g transform="translate(464.722289, 94.217993)"><g><path d="M 53.125 -46.078125 L 53.03125 -32.375 L 52.9375 -14 C 52.9375 -12.144531 53.234375 -10.785156 53.828125 -9.921875 C 54.421875 -9.066406 55.113281 -8.472656 55.90625 -8.140625 C 56.707031 -7.804688 57.40625 -7.488281 58 -7.1875 C 58.59375 -6.894531 58.890625 -6.382812 58.890625 -5.65625 C 58.890625 -4.601562 57.894531 -3.515625 55.90625 -2.390625 C 54.582031 -1.660156 52.910156 -0.929688 50.890625 -0.203125 C 48.878906 0.523438 47.207031 0.890625 45.875 0.890625 C 44.625 0.890625 43.71875 0.425781 43.15625 -0.5 C 42.59375 -1.425781 42.242188 -2.816406 42.109375 -4.671875 L 42.015625 -7.84375 C 39.960938 -5 37.445312 -2.832031 34.46875 -1.34375 C 31.488281 0.144531 28.640625 0.890625 25.921875 0.890625 C 20.691406 0.890625 16.550781 -0.757812 13.5 -4.0625 C 10.457031 -7.375 8.9375 -12.34375 8.9375 -18.96875 L 8.9375 -32.375 C 8.9375 -34.363281 8.703125 -35.835938 8.234375 -36.796875 C 7.773438 -37.753906 7.226562 -38.476562 6.59375 -38.96875 C 5.96875 -39.46875 5.40625 -39.898438 4.90625 -40.265625 C 4.414062 -40.628906 4.171875 -41.210938 4.171875 -42.015625 C 4.171875 -42.609375 4.351562 -43.101562 4.71875 -43.5 C 5.082031 -43.894531 5.859375 -44.359375 7.046875 -44.890625 C 9.234375 -45.878906 11.453125 -46.738281 13.703125 -47.46875 C 15.953125 -48.195312 17.441406 -48.59375 18.171875 -48.65625 C 19.566406 -48.789062 20.265625 -47.929688 20.265625 -46.078125 L 20.15625 -32.375 L 20.15625 -19.859375 C 20.15625 -15.753906 20.847656 -12.457031 22.234375 -9.96875 C 23.628906 -7.488281 26.050781 -6.285156 29.5 -6.359375 C 31.351562 -6.421875 33.1875 -7 35 -8.09375 C 36.820312 -9.1875 38.378906 -10.757812 39.671875 -12.8125 C 40.960938 -14.863281 41.675781 -17.28125 41.8125 -20.0625 L 41.71875 -32.375 C 41.71875 -34.363281 41.484375 -35.835938 41.015625 -36.796875 C 40.554688 -37.753906 40.007812 -38.476562 39.375 -38.96875 C 38.75 -39.46875 38.1875 -39.898438 37.6875 -40.265625 C 37.1875 -40.628906 36.9375 -41.210938 36.9375 -42.015625 C 36.9375 -42.609375 37.132812 -43.101562 37.53125 -43.5 C 37.9375 -43.894531 38.734375 -44.359375 39.921875 -44.890625 C 42.046875 -45.878906 44.234375 -46.738281 46.484375 -47.46875 C 48.734375 -48.195312 50.222656 -48.59375 50.953125 -48.65625 C 52.398438 -48.726562 53.125 -47.867188 53.125 -46.078125 Z M 53.125 -46.078125 "/></g></g></g><g fill="#545454" fill-opacity="1"><g transform="translate(527.67889, 94.217993)"><g><path d="M 35.859375 -48.65625 C 39.828125 -48.65625 43.316406 -47.675781 46.328125 -45.71875 C 49.335938 -43.769531 51.703125 -41.039062 53.421875 -37.53125 C 55.148438 -34.03125 56.015625 -29.960938 56.015625 -25.328125 C 56.015625 -19.898438 54.988281 -15.234375 52.9375 -11.328125 C 50.882812 -7.421875 48.203125 -4.40625 44.890625 -2.28125 C 41.578125 -0.164062 38.035156 0.925781 34.265625 1 C 31.484375 1.0625 28.816406 0.628906 26.265625 -0.296875 C 23.710938 -1.222656 21.507812 -2.316406 19.65625 -3.578125 L 19.765625 6.453125 C 19.765625 8.773438 19.992188 10.5 20.453125 11.625 C 20.921875 12.75 21.46875 13.570312 22.09375 14.09375 C 22.726562 14.625 23.273438 15.101562 23.734375 15.53125 C 24.203125 15.96875 24.4375 16.679688 24.4375 17.671875 C 24.4375 18.535156 24.085938 19.113281 23.390625 19.40625 C 22.691406 19.707031 21.679688 19.859375 20.359375 19.859375 L 7.84375 19.859375 C 6.582031 19.859375 5.570312 19.707031 4.8125 19.40625 C 4.050781 19.113281 3.671875 18.535156 3.671875 17.671875 C 3.671875 16.679688 3.921875 15.96875 4.421875 15.53125 C 4.921875 15.101562 5.484375 14.625 6.109375 14.09375 C 6.734375 13.570312 7.296875 12.75 7.796875 11.625 C 8.296875 10.5 8.546875 8.773438 8.546875 6.453125 L 8.34375 -33.171875 C 8.34375 -34.691406 8.125 -36 7.6875 -37.09375 C 7.257812 -38.1875 6.484375 -39.097656 5.359375 -39.828125 C 4.898438 -40.160156 4.488281 -40.523438 4.125 -40.921875 C 3.757812 -41.316406 3.578125 -41.8125 3.578125 -42.40625 C 3.578125 -43.132812 3.773438 -43.695312 4.171875 -44.09375 C 4.566406 -44.488281 5.359375 -44.953125 6.546875 -45.484375 C 8.335938 -46.347656 10.242188 -47.078125 12.265625 -47.671875 C 14.285156 -48.265625 15.660156 -48.59375 16.390625 -48.65625 C 17.773438 -48.789062 18.46875 -47.929688 18.46875 -46.078125 L 18.375 -39.03125 C 20.03125 -41.539062 22.28125 -43.769531 25.125 -45.71875 C 27.96875 -47.675781 31.546875 -48.65625 35.859375 -48.65625 Z M 33.859375 -4.375 C 36.515625 -4.375 38.648438 -5.132812 40.265625 -6.65625 C 41.890625 -8.175781 43.097656 -10.175781 43.890625 -12.65625 C 44.691406 -15.144531 45.09375 -17.742188 45.09375 -20.453125 C 45.09375 -27.015625 43.785156 -32.144531 41.171875 -35.84375 C 38.554688 -39.550781 35.394531 -41.40625 31.6875 -41.40625 C 29.164062 -41.40625 26.992188 -40.675781 25.171875 -39.21875 C 23.347656 -37.769531 21.972656 -35.9375 21.046875 -33.71875 C 20.117188 -31.5 19.65625 -29.195312 19.65625 -26.8125 L 19.65625 -20.0625 C 19.726562 -16.75 20.472656 -13.914062 21.890625 -11.5625 C 23.316406 -9.21875 25.125 -7.429688 27.3125 -6.203125 C 29.5 -4.984375 31.679688 -4.375 33.859375 -4.375 Z M 33.859375 -4.375 "/></g></g></g><g fill="#545454" fill-opacity="1"><g transform="translate(587.159913, 94.217993)"><g/></g></g><g fill="#545454" fill-opacity="1"><g transform="translate(607.02005, 94.217993)"><g><path d="M 8.84375 -69.515625 L 28.40625 -69.515625 C 35.488281 -69.515625 41.476562 -68.40625 46.375 -66.1875 C 51.28125 -63.96875 55.003906 -60.953125 57.546875 -57.140625 C 60.097656 -53.335938 61.375 -49.054688 61.375 -44.296875 C 61.375 -36.941406 58.820312 -31.328125 53.71875 -27.453125 C 48.625 -23.585938 41.113281 -21.65625 31.1875 -21.65625 L 23.34375 -21.65625 C 22.476562 -21.65625 21.929688 -21.550781 21.703125 -21.34375 C 21.472656 -21.144531 21.359375 -20.582031 21.359375 -19.65625 L 21.359375 -15.5 C 21.359375 -12.582031 21.65625 -10.441406 22.25 -9.078125 C 22.84375 -7.722656 23.550781 -6.765625 24.375 -6.203125 C 25.207031 -5.640625 25.921875 -5.125 26.515625 -4.65625 C 27.109375 -4.195312 27.40625 -3.441406 27.40625 -2.390625 C 27.40625 -1.523438 27.007812 -0.910156 26.21875 -0.546875 C 25.425781 -0.179688 24.066406 0 22.140625 0 L 8.84375 0 C 5.332031 0 3.578125 -0.796875 3.578125 -2.390625 C 3.578125 -3.441406 3.890625 -4.195312 4.515625 -4.65625 C 5.148438 -5.125 5.878906 -5.640625 6.703125 -6.203125 C 7.523438 -6.765625 8.25 -7.722656 8.875 -9.078125 C 9.507812 -10.441406 9.828125 -12.582031 9.828125 -15.5 L 9.828125 -54.328125 C 9.828125 -55.378906 9.8125 -56.21875 9.78125 -56.84375 C 9.75 -57.476562 9.664062 -58.09375 9.53125 -58.6875 C 9.332031 -60.21875 8.914062 -61.34375 8.28125 -62.0625 C 7.65625 -62.789062 6.976562 -63.367188 6.25 -63.796875 C 5.53125 -64.234375 4.90625 -64.679688 4.375 -65.140625 C 3.84375 -65.609375 3.578125 -66.273438 3.578125 -67.140625 C 3.578125 -68.722656 5.332031 -69.515625 8.84375 -69.515625 Z M 30.6875 -26.8125 C 36.1875 -26.8125 40.65625 -28.035156 44.09375 -30.484375 C 47.539062 -32.929688 49.265625 -36.972656 49.265625 -42.609375 C 49.265625 -46.972656 48.335938 -50.789062 46.484375 -54.0625 C 44.628906 -57.34375 42.128906 -59.878906 38.984375 -61.671875 C 35.835938 -63.460938 32.242188 -64.359375 28.203125 -64.359375 C 25.160156 -64.359375 23.257812 -64.175781 22.5 -63.8125 C 21.738281 -63.445312 21.359375 -62.734375 21.359375 -61.671875 L 21.359375 -29.890625 C 21.359375 -28.828125 21.921875 -28.046875 23.046875 -27.546875 C 24.171875 -27.054688 26.71875 -26.8125 30.6875 -26.8125 Z M 30.6875 -26.8125 "/></g></g></g><g fill="#545454" fill-opacity="1"><g transform="translate(670.572473, 94.217993)"><g><path d="M 32.078125 -10.125 C 32.941406 -10.851562 33.6875 -10.953125 34.3125 -10.421875 C 34.9375 -9.898438 35.085938 -9.175781 34.765625 -8.25 C 34.296875 -6.988281 33.445312 -5.628906 32.21875 -4.171875 C 31 -2.710938 29.410156 -1.484375 27.453125 -0.484375 C 25.503906 0.503906 23.207031 1 20.5625 1 C 16.320312 1 13.09375 -0.273438 10.875 -2.828125 C 8.65625 -5.378906 7.546875 -9.070312 7.546875 -13.90625 L 7.546875 -17.96875 C 7.546875 -23.070312 7.578125 -27.691406 7.640625 -31.828125 C 7.710938 -35.960938 7.8125 -39.457031 7.9375 -42.3125 L 4.671875 -42.3125 C 3.546875 -42.3125 2.75 -42.492188 2.28125 -42.859375 C 1.820312 -43.222656 1.59375 -43.765625 1.59375 -44.484375 C 1.59375 -45.484375 1.988281 -46.410156 2.78125 -47.265625 C 4.632812 -49.253906 6.570312 -51.09375 8.59375 -52.78125 C 10.613281 -54.46875 12.550781 -55.941406 14.40625 -57.203125 C 15.332031 -57.796875 16.007812 -58.140625 16.4375 -58.234375 C 16.863281 -58.335938 17.242188 -58.390625 17.578125 -58.390625 C 18.242188 -58.390625 18.722656 -58.140625 19.015625 -57.640625 C 19.316406 -57.148438 19.429688 -56.539062 19.359375 -55.8125 C 19.296875 -54.625 19.226562 -53.382812 19.15625 -52.09375 C 19.09375 -50.800781 19.03125 -49.328125 18.96875 -47.671875 L 28.90625 -47.671875 C 29.757812 -47.671875 30.484375 -47.503906 31.078125 -47.171875 C 31.679688 -46.835938 31.847656 -46.007812 31.578125 -44.6875 C 31.316406 -43.300781 30.804688 -42.441406 30.046875 -42.109375 C 29.285156 -41.773438 28.441406 -41.644531 27.515625 -41.71875 L 18.875 -42.015625 C 18.800781 -39.296875 18.765625 -36 18.765625 -32.125 C 18.765625 -28.25 18.703125 -23.53125 18.578125 -17.96875 C 18.503906 -14.132812 18.894531 -11.351562 19.75 -9.625 C 20.613281 -7.90625 22.273438 -7.046875 24.734375 -7.046875 C 26.054688 -7.046875 27.378906 -7.359375 28.703125 -7.984375 C 30.023438 -8.617188 31.148438 -9.332031 32.078125 -10.125 Z M 32.078125 -10.125 "/></g></g></g><g fill="#545454" fill-opacity="1"><g transform="translate(703.440588, 94.217993)"><g><path d="M 43.5 -47.671875 L 49.75 -47.671875 C 51.007812 -47.671875 52.019531 -47.519531 52.78125 -47.21875 C 53.539062 -46.925781 53.921875 -46.347656 53.921875 -45.484375 C 53.921875 -44.691406 53.707031 -44.078125 53.28125 -43.640625 C 52.851562 -43.210938 52.289062 -42.71875 51.59375 -42.15625 C 50.894531 -41.59375 50.148438 -40.796875 49.359375 -39.765625 C 48.566406 -38.742188 47.769531 -37.238281 46.96875 -35.25 L 34.15625 -2.1875 C 32.375 2.445312 30.617188 6.5 28.890625 9.96875 C 27.171875 13.445312 25.117188 16.128906 22.734375 18.015625 C 20.359375 19.910156 17.179688 20.859375 13.203125 20.859375 C 10.222656 20.859375 7.722656 20.09375 5.703125 18.5625 C 3.691406 17.039062 2.6875 15.125 2.6875 12.8125 C 2.6875 11.289062 3.164062 9.898438 4.125 8.640625 C 5.082031 7.378906 6.390625 6.75 8.046875 6.75 C 9.304688 6.75 10.316406 7.113281 11.078125 7.84375 C 11.835938 8.570312 12.53125 9.429688 13.15625 10.421875 C 13.789062 11.421875 14.488281 12.300781 15.25 13.0625 C 16.007812 13.820312 16.984375 14.203125 18.171875 14.203125 C 19.828125 14.203125 21.203125 13.175781 22.296875 11.125 C 23.390625 9.070312 23.9375 6.820312 23.9375 4.375 C 23.9375 3.050781 23.769531 1.804688 23.4375 0.640625 C 23.101562 -0.515625 22.707031 -1.6875 22.25 -2.875 L 9.4375 -35.25 C 8.644531 -37.238281 7.832031 -38.742188 7 -39.765625 C 6.175781 -40.796875 5.429688 -41.59375 4.765625 -42.15625 C 4.109375 -42.71875 3.5625 -43.210938 3.125 -43.640625 C 2.695312 -44.078125 2.484375 -44.691406 2.484375 -45.484375 C 2.484375 -46.410156 2.847656 -47.003906 3.578125 -47.265625 C 4.304688 -47.535156 5.296875 -47.671875 6.546875 -47.671875 L 19.65625 -47.671875 C 20.988281 -47.671875 22.035156 -47.519531 22.796875 -47.21875 C 23.554688 -46.925781 23.9375 -46.347656 23.9375 -45.484375 C 23.9375 -44.691406 23.65625 -44.078125 23.09375 -43.640625 C 22.53125 -43.210938 21.96875 -42.71875 21.40625 -42.15625 C 20.84375 -41.59375 20.476562 -40.796875 20.3125 -39.765625 C 20.144531 -38.742188 20.457031 -37.238281 21.25 -35.25 L 31.484375 -9.03125 L 41.609375 -35.25 C 42.398438 -37.238281 42.726562 -38.757812 42.59375 -39.8125 C 42.46875 -40.875 42.15625 -41.671875 41.65625 -42.203125 C 41.164062 -42.734375 40.671875 -43.210938 40.171875 -43.640625 C 39.671875 -44.078125 39.421875 -44.691406 39.421875 -45.484375 C 39.421875 -46.410156 39.785156 -47.003906 40.515625 -47.265625 C 41.242188 -47.535156 42.238281 -47.671875 43.5 -47.671875 Z M 43.5 -47.671875 "/></g></g></g><g fill="#545454" fill-opacity="1"><g transform="translate(755.870988, 94.217993)"><g/></g></g><g fill="#545454" fill-opacity="1"><g transform="translate(775.731125, 94.217993)"><g><path d="M 51.84375 -19.171875 C 52.695312 -18.972656 53.222656 -18.539062 53.421875 -17.875 C 53.628906 -17.21875 53.695312 -16.320312 53.625 -15.1875 C 53.5 -12.613281 53.300781 -10.429688 53.03125 -8.640625 C 52.769531 -6.847656 52.441406 -5.226562 52.046875 -3.78125 C 51.710938 -2.519531 51.046875 -1.570312 50.046875 -0.9375 C 49.054688 -0.3125 47.003906 0 43.890625 0 L 8.84375 0 C 5.332031 0 3.578125 -0.796875 3.578125 -2.390625 C 3.578125 -3.316406 3.84375 -3.992188 4.375 -4.421875 C 4.90625 -4.847656 5.53125 -5.273438 6.25 -5.703125 C 6.976562 -6.140625 7.65625 -6.738281 8.28125 -7.5 C 8.914062 -8.257812 9.332031 -9.367188 9.53125 -10.828125 C 9.664062 -11.421875 9.75 -12.03125 9.78125 -12.65625 C 9.8125 -13.289062 9.828125 -14.132812 9.828125 -15.1875 L 9.828125 -54.03125 C 9.828125 -56.9375 9.53125 -59.066406 8.9375 -60.421875 C 8.34375 -61.785156 7.628906 -62.75 6.796875 -63.3125 C 5.972656 -63.875 5.265625 -64.382812 4.671875 -64.84375 C 4.078125 -65.3125 3.78125 -66.078125 3.78125 -67.140625 C 3.78125 -68.066406 4.175781 -68.691406 4.96875 -69.015625 C 5.757812 -69.347656 7.113281 -69.515625 9.03125 -69.515625 L 22.34375 -69.515625 C 25.851562 -69.515625 27.609375 -68.722656 27.609375 -67.140625 C 27.609375 -66.078125 27.289062 -65.3125 26.65625 -64.84375 C 26.03125 -64.382812 25.300781 -63.875 24.46875 -63.3125 C 23.644531 -62.75 22.921875 -61.785156 22.296875 -60.421875 C 21.671875 -59.066406 21.359375 -56.9375 21.359375 -54.03125 L 21.359375 -10.125 C 21.359375 -8.46875 21.867188 -7.257812 22.890625 -6.5 C 23.921875 -5.738281 26.15625 -5.359375 29.59375 -5.359375 L 34.953125 -5.46875 C 37.535156 -5.46875 39.570312 -5.828125 41.0625 -6.546875 C 42.550781 -7.273438 43.757812 -8.367188 44.6875 -9.828125 C 45.613281 -11.285156 46.578125 -13.109375 47.578125 -15.296875 C 48.367188 -17.015625 49.09375 -18.117188 49.75 -18.609375 C 50.414062 -19.109375 51.113281 -19.296875 51.84375 -19.171875 Z M 51.84375 -19.171875 "/></g></g></g><g fill="#545454" fill-opacity="1"><g transform="translate(831.637376, 94.217993)"><g><path d="M 32.078125 -10.125 C 32.941406 -10.851562 33.6875 -10.953125 34.3125 -10.421875 C 34.9375 -9.898438 35.085938 -9.175781 34.765625 -8.25 C 34.296875 -6.988281 33.445312 -5.628906 32.21875 -4.171875 C 31 -2.710938 29.410156 -1.484375 27.453125 -0.484375 C 25.503906 0.503906 23.207031 1 20.5625 1 C 16.320312 1 13.09375 -0.273438 10.875 -2.828125 C 8.65625 -5.378906 7.546875 -9.070312 7.546875 -13.90625 L 7.546875 -17.96875 C 7.546875 -23.070312 7.578125 -27.691406 7.640625 -31.828125 C 7.710938 -35.960938 7.8125 -39.457031 7.9375 -42.3125 L 4.671875 -42.3125 C 3.546875 -42.3125 2.75 -42.492188 2.28125 -42.859375 C 1.820312 -43.222656 1.59375 -43.765625 1.59375 -44.484375 C 1.59375 -45.484375 1.988281 -46.410156 2.78125 -47.265625 C 4.632812 -49.253906 6.570312 -51.09375 8.59375 -52.78125 C 10.613281 -54.46875 12.550781 -55.941406 14.40625 -57.203125 C 15.332031 -57.796875 16.007812 -58.140625 16.4375 -58.234375 C 16.863281 -58.335938 17.242188 -58.390625 17.578125 -58.390625 C 18.242188 -58.390625 18.722656 -58.140625 19.015625 -57.640625 C 19.316406 -57.148438 19.429688 -56.539062 19.359375 -55.8125 C 19.296875 -54.625 19.226562 -53.382812 19.15625 -52.09375 C 19.09375 -50.800781 19.03125 -49.328125 18.96875 -47.671875 L 28.90625 -47.671875 C 29.757812 -47.671875 30.484375 -47.503906 31.078125 -47.171875 C 31.679688 -46.835938 31.847656 -46.007812 31.578125 -44.6875 C 31.316406 -43.300781 30.804688 -42.441406 30.046875 -42.109375 C 29.285156 -41.773438 28.441406 -41.644531 27.515625 -41.71875 L 18.875 -42.015625 C 18.800781 -39.296875 18.765625 -36 18.765625 -32.125 C 18.765625 -28.25 18.703125 -23.53125 18.578125 -17.96875 C 18.503906 -14.132812 18.894531 -11.351562 19.75 -9.625 C 20.613281 -7.90625 22.273438 -7.046875 24.734375 -7.046875 C 26.054688 -7.046875 27.378906 -7.359375 28.703125 -7.984375 C 30.023438 -8.617188 31.148438 -9.332031 32.078125 -10.125 Z M 32.078125 -10.125 "/></g></g></g><g fill="#545454" fill-opacity="1"><g transform="translate(866.491693, 94.217993)"><g><path d="M 51.84375 -67.328125 L 51.734375 -53.734375 L 51.640625 -14 C 51.640625 -12.144531 51.9375 -10.785156 52.53125 -9.921875 C 53.132812 -9.066406 53.816406 -8.457031 54.578125 -8.09375 C 55.335938 -7.726562 56.015625 -7.394531 56.609375 -7.09375 C 57.203125 -6.800781 57.5 -6.289062 57.5 -5.5625 C 57.5 -4.5 56.539062 -3.441406 54.625 -2.390625 C 53.226562 -1.660156 51.535156 -0.929688 49.546875 -0.203125 C 47.566406 0.523438 45.914062 0.890625 44.59375 0.890625 C 42.144531 0.890625 40.882812 -0.925781 40.8125 -4.5625 L 40.71875 -7.640625 C 39.0625 -5.265625 36.84375 -3.210938 34.0625 -1.484375 C 31.28125 0.234375 27.90625 1.0625 23.9375 1 C 19.832031 0.925781 16.238281 -0.0976562 13.15625 -2.078125 C 10.082031 -4.066406 7.679688 -6.75 5.953125 -10.125 C 4.234375 -13.5 3.375 -17.304688 3.375 -21.546875 C 3.375 -25.648438 4.082031 -29.359375 5.5 -32.671875 C 6.925781 -35.984375 8.832031 -38.832031 11.21875 -41.21875 C 13.601562 -43.601562 16.285156 -45.4375 19.265625 -46.71875 C 22.242188 -48.007812 25.253906 -48.65625 28.296875 -48.65625 C 33.003906 -48.65625 37.078125 -47.46875 40.515625 -45.09375 L 40.515625 -53.625 C 40.515625 -55.613281 40.265625 -57.101562 39.765625 -58.09375 C 39.273438 -59.09375 38.710938 -59.820312 38.078125 -60.28125 C 37.453125 -60.75 36.890625 -61.179688 36.390625 -61.578125 C 35.898438 -61.972656 35.65625 -62.535156 35.65625 -63.265625 C 35.65625 -63.859375 35.851562 -64.351562 36.25 -64.75 C 36.644531 -65.144531 37.4375 -65.609375 38.625 -66.140625 C 40.75 -67.128906 42.9375 -68.003906 45.1875 -68.765625 C 47.4375 -69.535156 48.957031 -69.921875 49.75 -69.921875 C 51.144531 -70.046875 51.84375 -69.179688 51.84375 -67.328125 Z M 28.5 -6.546875 C 30.882812 -6.546875 32.9375 -7.125 34.65625 -8.28125 C 36.382812 -9.445312 37.726562 -10.921875 38.6875 -12.703125 C 39.644531 -14.492188 40.222656 -16.382812 40.421875 -18.375 L 40.421875 -23.640625 C 40.359375 -25.691406 40.144531 -27.789062 39.78125 -29.9375 C 39.414062 -32.09375 38.769531 -34 37.84375 -35.65625 C 35.1875 -40.625 31.378906 -43.109375 26.421875 -43.109375 C 22.578125 -43.109375 19.578125 -41.597656 17.421875 -38.578125 C 15.273438 -35.566406 14.203125 -31.675781 14.203125 -26.90625 C 14.203125 -22.476562 14.894531 -18.753906 16.28125 -15.734375 C 17.675781 -12.722656 19.460938 -10.4375 21.640625 -8.875 C 23.828125 -7.320312 26.113281 -6.546875 28.5 -6.546875 Z M 28.5 -6.546875 "/></g></g></g></g></g></svg>